<svg xmlns="http://www.w3.org/2000/svg" width="194" height="32" fill="none" viewBox="0 0 194 32"><path fill="#339" d="M9.454 2.77C10.93 1.267 12.972.38 15.059.183c2.12-.192 4.336.191 6.17 1.305 2.52 1.494 4.219 4.216 4.609 7.103-.457.208-.913.414-1.368.626a7.539 7.539 0 0 0-1.887-4.487c-1.174-1.287-2.779-2.195-4.505-2.457-1.748-.293-3.556.293-4.958 1.338-1.656 1.246-2.862 3.112-3.24 5.156a14.21 14.21 0 0 0-3.227.392c.135-2.371 1.086-4.72 2.8-6.387Zm65.6-.527c1.052-.513 2.432.329 2.452 1.497.112 1.027-.865 1.973-1.884 1.863-.959-.05-1.752-1.009-1.602-1.964.06-.609.488-1.141 1.034-1.396Zm27.068.274h2.136c.006 3.101-.007 6.203.007 9.304.962-1.224 2.157-2.321 3.632-2.882 1.79-.687 3.917-.664 5.594.326a5.668 5.668 0 0 1 2.624 3.47c.365 1.432.415 2.922.404 4.393v8.274l-2.118-.001c-.006-2.969.008-5.939-.007-8.908-.041-1.466-.025-3.039-.843-4.322-.529-.876-1.455-1.475-2.459-1.646-1.354-.26-2.817-.011-3.967.764-1.427.93-2.461 2.473-2.68 4.171-.255 1.942-.17 3.905-.186 5.857 0 1.36.002 2.719-.002 4.078-.712.009-1.425.017-2.137-.006.005-7.623-.001-15.248.002-22.872Zm20.806.247c.715.003 1.43 0 2.147 0 .002 2.044-.002 4.088.001 6.131h3.358v1.825h-3.358v14.67c-.717.02-1.435.007-2.15.009l-.001-14.68c-.962-.003-1.926.004-2.888-.005.006-.606-.001-1.214.005-1.822.961.006 1.922.002 2.883.002.002-2.043-.002-4.088.003-6.132Zm-74.69.316c1.497 0 2.993-.004 4.489.001 1.297.026 2.628.098 3.85.577 1.202.472 2.19 1.432 2.727 2.604.72 1.567.661 3.493-.23 4.982-.495.856-1.274 1.508-2.125 1.992.925.33 1.849.723 2.619 1.348 1.281 1.042 2.03 2.683 2.034 4.33.038 1.526-.506 3.064-1.543 4.191-.943 1.088-2.265 1.813-3.671 2.098-1.136.254-2.306.191-3.46.198-1.563 0-3.126.003-4.689 0V3.079Zm2.19 2.192c0 2.38-.002 4.76 0 7.14 1.254.002 2.517.03 3.756-.187.833-.14 1.647-.5 2.234-1.117 1.127-1.114 1.423-3.047.519-4.382-.592-.865-1.645-1.242-2.645-1.367-1.283-.145-2.577-.077-3.864-.087m-.001 9.393c-.004 2.85-.002 5.699-.002 8.548 1.185-.005 2.369.015 3.553-.012 1.207-.061 2.498-.152 3.523-.864 1.077-.734 1.8-2.008 1.774-3.322a3.83 3.83 0 0 0-1.116-2.72c-.846-.88-2.047-1.341-3.242-1.485-1.49-.18-2.994-.139-4.49-.145ZM70.6 8.539c.895-.206 1.82.049 2.602.494-.375.592-.734 1.193-1.11 1.784-.647-.3-1.403-.389-2.07-.102-1.122.435-1.91 1.453-2.32 2.555-.597 1.45-.576 3.05-.655 4.589-.031 2.514-.005 5.028-.014 7.542-.724.002-1.448 0-2.17 0-.002-5.501-.002-11.003 0-16.505.722.003 1.446 0 2.17 0 .005.79-.01 1.578.009 2.367.871-1.228 2.017-2.428 3.558-2.724Zm15.583.387c2.08-.724 4.464-.595 6.418.437 1.098.573 1.993 1.447 2.82 2.354.014-.94.002-1.88.007-2.82.716-.002 1.432 0 2.149 0v12.84c.008 1.275-.032 2.554-.219 3.815-.213 1.555-.9 3.068-2.053 4.151-1.377 1.313-3.266 1.97-5.139 2.118-2.291.181-4.704-.174-6.673-1.422-1.368-.848-2.246-2.26-2.91-3.689.767-.003 1.532.005 2.299-.004.546.92 1.27 1.753 2.204 2.296 1.46.858 3.223 1.005 4.88.876 1.522-.12 3.038-.716 4.117-1.818a4.014 4.014 0 0 0 1-1.72c.373-1.315.356-2.696.34-4.05a8.239 8.239 0 0 1-3.817 2.664c-2.17.731-4.635.569-6.672-.484-1.344-.67-2.523-1.692-3.31-2.976-.911-1.446-1.33-3.178-1.241-4.88.072-1.855.796-3.666 1.984-5.087 1.002-1.195 2.348-2.086 3.816-2.601Zm2.312 1.621c-2.011.181-3.943 1.315-4.99 3.058-1.003 1.592-1.25 3.611-.746 5.416.471 1.694 1.762 3.12 3.367 3.82 1.395.598 2.974.68 4.458.426 1.627-.275 3.13-1.245 4.01-2.649.862-1.352 1.07-3.026.892-4.595-.19-1.575-.973-3.094-2.225-4.083a6.584 6.584 0 0 0-4.766-1.393Zm-13.8-1.652c.71.007 1.421-.006 2.131.008-.01 5.5 0 10.999-.004 16.499h-2.127V8.895ZM4.092 12.056a8.99 8.99 0 0 1 4.904-1.788 10.316 10.316 0 0 1 6.553 1.81c.422.275.78.64 1.226.882l.224.192c-.508.472-1.036.923-1.55 1.39-.14-.122-.28-.245-.415-.373a2.846 2.846 0 0 0-.235-.29c-1.958-1.604-4.667-2.26-7.139-1.694-1.845.427-3.514 1.584-4.537 3.182-1.084 1.658-1.43 3.747-1.069 5.684.31 1.64 1.27 3.114 2.553 4.163 1.078.917 2.436 1.432 3.802 1.737 1.539.335 3.165.119 4.598-.52 1.34-.598 2.619-1.393 3.618-2.48 1.085-1.17 1.832-2.598 2.6-3.986.933-1.737 1.798-3.517 2.864-5.18.62-.951 1.288-1.897 2.179-2.615.429-.35.93-.61 1.467-.747-1.353.48-2.29 1.637-3.053 2.799-1.089 1.685-1.963 3.494-2.857 5.287-.464.915-.844 1.87-1.316 2.78-.638 1.275-1.487 2.46-2.602 3.358-1.107.883-2.356 1.604-3.704 2.046-1.535.508-3.211.517-4.769.108-1.002-.266-1.999-.613-2.874-1.18-1.618-1.028-2.936-2.57-3.568-4.39-.602-1.72-.623-3.623-.157-5.379a8.903 8.903 0 0 1 3.257-4.796Z"></path><path fill="#4792CF" d="M159.438 2.202c1.033-.409 2.283.435 2.314 1.538.1.958-.755 1.865-1.709 1.86-.941.04-1.818-.812-1.772-1.76-.019-.727.495-1.394 1.167-1.638Zm-15.782.321c.711-.002 1.423.001 2.135 0 .004 4.34-.008 8.678.006 13.017 2.547-2.192 5.066-4.418 7.613-6.613 1.039-.055 2.086-.005 3.129-.023-3.035 2.6-6.03 5.247-9.058 7.856 3.176 2.892 6.377 5.76 9.575 8.627-.994.01-1.992.037-2.984-.01-2.769-2.448-5.506-4.938-8.274-7.39-.017 2.47-.003 4.941-.007 7.412-.712-.005-1.425.016-2.136-.013.002-7.62-.001-15.241.001-22.862Zm-9.924 6.2a4.995 4.995 0 0 1 3.101 0c1.123.366 2.101 1.074 2.957 1.874.13.1-.016.23-.086.31-.384.395-.778.78-1.149 1.185-.56-.501-1.144-.996-1.839-1.298-.807-.373-1.783-.49-2.606-.107-.755.347-1.367 1.093-1.395 1.946-.045.779.389 1.506.963 2 1.259 1.078 2.878 1.596 4.189 2.6.709.512 1.351 1.157 1.69 1.975.811 1.838.238 4.15-1.309 5.424-1.46 1.313-3.66 1.468-5.448.81a6.275 6.275 0 0 1-2.406-1.573 1.155 1.155 0 0 1-.287-.43c.453-.466.858-.974 1.294-1.455.587.661 1.282 1.253 2.114 1.58.886.345 1.921.345 2.784-.068.688-.356 1.282-.952 1.512-1.704.2-.7.11-1.493-.297-2.103-.313-.491-.81-.819-1.286-1.133-.939-.61-1.984-1.036-2.915-1.659-.753-.492-1.49-1.072-1.933-1.871-.569-.983-.693-2.184-.441-3.282.322-1.403 1.434-2.572 2.793-3.021Zm36.998.067c1.843-.485 3.844-.422 5.633.246 1.715.639 3.141 1.925 4.092 3.473.869 1.44 1.234 3.136 1.246 4.806h-14.839c.016 1.807.666 3.657 2.012 4.903 1.227 1.25 3.04 1.815 4.765 1.651a7.085 7.085 0 0 0 3.436-1.2c.875-.593 1.506-1.467 2.063-2.349.089-.117.128-.286.265-.358.591.284 1.16.614 1.747.91-.753 1.493-1.833 2.86-3.281 3.73-1.864 1.177-4.18 1.414-6.324 1.084-1.779-.274-3.477-1.17-4.622-2.569-1.289-1.488-2.117-3.39-2.213-5.365-.13-1.973.393-3.99 1.524-5.619 1.053-1.587 2.642-2.846 4.496-3.341m-2.552 4.219c-.517.75-.845 1.607-1.109 2.474 4.102-.003 8.203-.005 12.305 0-.236-.977-.614-1.942-1.243-2.735-1.252-1.524-3.272-2.33-5.226-2.242-1.849.033-3.681.967-4.727 2.503Zm17.9-3.212c.981-1.037 2.487-1.463 3.882-1.286 1.547.205 2.905 1.12 3.989 2.201-.455.46-.903.924-1.349 1.39-.654-.644-1.413-1.213-2.295-1.491-.725-.228-1.552-.238-2.236.122-.709.365-1.284 1.084-1.296 1.906-.048.755.362 1.457.904 1.95 1.313 1.136 3.02 1.66 4.373 2.738.868.623 1.557 1.52 1.795 2.572.334 1.108.096 2.315-.411 3.33-.622 1.141-1.7 2.048-2.96 2.393-2.29.62-4.886-.272-6.347-2.132.447-.495.879-1.005 1.327-1.502.76.868 1.755 1.613 2.922 1.788 1.213.203 2.538-.314 3.202-1.37.541-.815.523-1.963-.04-2.763-.319-.491-.832-.803-1.308-1.12-.967-.625-2.045-1.058-2.993-1.712-.695-.476-1.378-1.023-1.791-1.772-.95-1.63-.734-3.906.632-5.242Zm-27.135-.889c.709-.016 1.418-.001 2.129-.008l-.001 16.497c-.711-.009-1.422.016-2.133-.015.006-5.492-.003-10.983.005-16.474Z"></path><path fill="#4F97D1" d="M24.566 10.147c1.842-1.138 4.018-1.772 6.19-1.65 2.586.101 5.213.919 7.195 2.626 1.68 1.42 2.756 3.472 3.148 5.621.5 2.722.203 5.664-1.207 8.081-1.107 1.942-2.941 3.428-5.034 4.194-1.871.684-3.91.91-5.887.685-2.669-.316-5.09-1.842-6.76-3.913.508-.504.974-1.045 1.471-1.559 1.528 1.479 3.591 2.357 5.705 2.517 2.44.186 5.032-.242 7.047-1.704a6.72 6.72 0 0 0 2.7-4.272c.263-1.52.148-3.126-.441-4.559-.572-1.394-1.656-2.557-2.98-3.269-1.666-.91-3.613-1.197-5.49-1.081-1.794.133-3.478.978-4.797 2.178-1.856 1.675-3.108 3.893-4.133 6.145-.484.89-1.048 1.735-1.521 2.633-1.408 2.595-3.764 4.758-6.646 5.557-2.718.77-5.73.572-8.268-.694-1.759-.865-3.247-2.317-4.042-4.12-.284-.599-.463-1.233-.596-1.878a11.15 11.15 0 0 1-.088-3.913c.078-.501.163-1.002.32-1.486.54-1.845 1.69-3.51 3.253-4.632 1.907-1.389 4.301-2.056 6.65-1.985 2.486.137 4.724 1.54 6.42 3.291-.445-.242-.804-.607-1.226-.883-1.9-1.316-4.246-1.975-6.553-1.81a8.99 8.99 0 0 0-4.904 1.79 8.903 8.903 0 0 0-3.257 4.795C.369 18.608.39 20.51.992 22.231c.632 1.82 1.95 3.362 3.568 4.39.875.567 1.872.914 2.874 1.18 1.558.409 3.234.4 4.769-.108 1.348-.442 2.597-1.163 3.704-2.046 1.115-.898 1.964-2.083 2.602-3.357.472-.912.852-1.866 1.316-2.78.894-1.794 1.768-3.603 2.857-5.289.763-1.16 1.7-2.318 3.053-2.798a3.805 3.805 0 0 0-1.467.747c-.891.718-1.559 1.663-2.18 2.614-1.065 1.663-1.93 3.444-2.863 5.181-.768 1.388-1.515 2.815-2.6 3.986-1 1.087-2.278 1.882-3.618 2.48-1.433.639-3.06.855-4.598.52-1.366-.305-2.724-.82-3.802-1.737-1.284-1.049-2.243-2.524-2.553-4.163-.362-1.937-.015-4.026 1.07-5.684 1.022-1.598 2.69-2.755 4.536-3.182 2.472-.566 5.181.09 7.14 1.694.084.091.162.189.234.29-1.874-1.522-4.458-1.823-6.776-1.452C6.572 13 4.893 13.774 3.85 15.17c-1.125 1.483-1.367 3.451-1.15 5.254.2 1.595.978 3.14 2.266 4.123 1.631 1.267 3.826 1.562 5.823 1.268 1.63-.241 3.133-1.094 4.242-2.3 1.857-1.956 2.778-4.538 3.935-6.921 1.194-2.627 3.139-4.93 5.6-6.446Z"></path></svg>