<svg xmlns="http://www.w3.org/2000/svg" xmlns:xlink="http://www.w3.org/1999/xlink" id="Layer_1" x="0px" y="0px" viewBox="0 0 385.3 130.6" style="enable-background:new 0 0 385.3 130.6;" xml:space="preserve"><style type="text/css">	.st0{fill:#575756;}	.st1{fill:#82602B;}	.st2{fill:#BB9753;}	.st3{fill:#236993;}	.st4{fill:#77787B;}	.st5{fill:#BCBEC0;}	.st6{fill:#4485B7;}</style><g>	<path class="st0" d="M11.1,96.7H2.9v23.7h8.1c7.9,0,11.4-4.5,11.4-12.4C22.5,100.3,18.4,96.7,11.1,96.7z M11.3,117.7H6.1V99.3h5.3  c5.8,0,7.9,3.4,7.9,9.1C19.3,117.1,13.5,117.7,11.3,117.7z"></path>	<path class="st0" d="M37.2,112.9c0,3.1-1.7,5.4-5.1,5.4c-2.2,0-3.5-1.4-3.5-3.5v-11.6h-2.8v11.3c0,3.7,1.4,6.3,5.9,6.3  c2.5,0,4.4-1,5.6-3.1h0.1v2.7H40v-17.2h-2.8V112.9z"></path>	<path class="st0" d="M52.8,102.8c-2.4,0-4.5,0.8-5.5,2.7h-0.1v-8.9h-2.8v23.7h2.8v-2.3h0.1c1.3,2,3.8,2.7,5.5,2.7  c5.2,0,7.8-4.1,7.8-8.9C60.7,107,58,102.8,52.8,102.8z M52.5,118.3c-3.9,0-5.4-3.1-5.4-6.5c0-3.2,1.5-6.5,5.2-6.5  c3.7,0,5.3,3.1,5.3,6.3C57.7,115,56.4,118.3,52.5,118.3z"></path>	<path class="st0" d="M77.4,116.4v-8.8c0-4-3.4-4.7-6.4-4.7c-3.8,0-7.1,1.5-7.3,5.7h2.8c0.1-2.5,1.9-3.3,4.3-3.3  c1.8,0,3.8,0.4,3.8,2.9c0,2.1-2.7,1.9-5.8,2.5c-2.9,0.6-5.8,1.4-5.8,5.3c0,3.4,2.6,4.8,5.7,4.8c2.4,0,4.5-0.8,6-2.7  c0,1.9,0.9,2.7,2.4,2.7c0.9,0,1.5-0.2,2-0.5v-2.2c-0.4,0.1-0.6,0.2-0.9,0.2C77.4,118.3,77.4,117.7,77.4,116.4z M74.6,114.4  c0,1.6-1.5,3.9-5.2,3.9c-1.7,0-3.3-0.7-3.3-2.5c0-2.1,1.6-2.8,3.5-3.1c1.9-0.3,4-0.4,5.1-1.2V114.4z"></path>	<rect x="82" y="103.2" class="st0" width="2.8" height="17.2"></rect>	<rect x="82" y="96.7" class="st0" width="2.8" height="3.5"></rect>	<path class="st0" d="M108.9,118.3c-5.7,0-8.1-4.5-8.1-9.9c0-4.9,2.4-9.6,8-9.6c3.3,0,6,1.7,6.6,5h3.2c-0.7-5-4.8-7.7-9.8-7.7  c-7.3,0-11.2,5.6-11.2,12.5c0,6.9,3.6,12.3,11,12.3c6,0,9.7-3.6,10.3-9.5h-3.2C115.5,115.4,113.1,118.3,108.9,118.3z"></path>	<path class="st0" d="M133.7,112.9c0,3.1-1.7,5.4-5.1,5.4c-2.2,0-3.5-1.4-3.5-3.5v-11.6h-2.8v11.3c0,3.7,1.4,6.3,5.9,6.3  c2.5,0,4.4-1,5.6-3.1h0.1v2.7h2.7v-17.2h-2.8V112.9z"></path>	<path class="st0" d="M148.7,110.5c-2.6-0.6-5.6-1-5.6-3c0-1.7,2-2.2,3.7-2.2c1.9,0,3.8,0.7,4,2.9h2.8c-0.2-4.2-3.3-5.4-7-5.4  c-3,0-6.4,1.4-6.4,4.9c0,3.3,2.8,4.2,5.6,4.8c2.8,0.6,5.6,1,5.6,3.2c0,2.2-2.4,2.6-4.1,2.6c-2.3,0-4.5-0.8-4.6-3.3h-2.8  c0.2,4.2,3.4,5.8,7.3,5.8c3.5,0,7.3-1.3,7.3-5.4C154.3,112,151.5,111.1,148.7,110.5z"></path>	<path class="st0" d="M161.3,98.1h-2.8v5.1h-2.9v2.5h2.9v10.9c0,3.2,1.2,3.7,4.1,3.7h2.2v-2.5h-1.3c-1.8,0-2.1-0.2-2.1-1.5v-10.7  h3.4v-2.5h-3.4V98.1z"></path>	<path class="st0" d="M175.3,102.8c-5.4,0-8.3,3.9-8.3,9c0,5,2.9,9,8.3,9c5.4,0,8.3-3.9,8.3-9C183.6,106.8,180.7,102.8,175.3,102.8z   M175.3,118.3c-3,0-5.3-2.3-5.3-6.5c0-4.2,2.4-6.5,5.3-6.5c3,0,5.3,2.3,5.3,6.5C180.6,116,178.2,118.3,175.3,118.3z"></path>	<path class="st0" d="M205.3,102.8c-2.2,0-4.2,1.1-5.4,2.9c-0.7-2.1-2.6-2.9-4.7-2.9c-2.4,0-4.3,1-5.5,2.9h-0.1v-2.5h-2.7v17.2h2.8  v-10.7c0-1.3,1.2-4.4,4.6-4.4c2.5,0,3.2,1.6,3.2,3.8v11.2h2.8v-10.7c0-2.7,1.8-4.4,4.5-4.4c2.8,0,3.3,1.7,3.3,3.8v11.2h2.8v-12.6  C211,104.2,208.7,102.8,205.3,102.8z"></path>	<path class="st0" d="M223.1,110.5c-2.6-0.6-5.6-1-5.6-3c0-1.7,2-2.2,3.7-2.2c1.9,0,3.8,0.7,4,2.9h2.8c-0.2-4.2-3.3-5.4-7-5.4  c-3,0-6.4,1.4-6.4,4.9c0,3.3,2.8,4.2,5.6,4.8c2.8,0.6,5.6,1,5.6,3.2c0,2.2-2.4,2.6-4.1,2.6c-2.3,0-4.5-0.8-4.6-3.3h-2.8  c0.2,4.2,3.4,5.8,7.3,5.8c3.5,0,7.3-1.3,7.3-5.4C228.7,112,225.9,111.1,223.1,110.5z"></path>	<path class="st0" d="M14.7,92.1c0-1.1-0.6-1.7-1.7-1.7s-1.7,0.6-1.7,1.7s0.5,1.7,1.7,1.7S14.7,93.2,14.7,92.1z"></path>	<path class="st0" d="M9.2,92.1c0-1.1-0.5-1.7-1.7-1.7c-1.1,0-1.7,0.6-1.7,1.7s0.6,1.7,1.7,1.7C8.7,93.8,9.2,93.2,9.2,92.1z"></path>	<path class="st0" d="M68,70.3V59L65.2,60v10c0,3.2-1.4,4.7-4.3,4.7h-1.3h-0.7H53h-1h-5.6h-1H40h-1h-5.6h-1h-5.6h-1h-6.1h-0.5h-1.8  c-2,0-3.4-1.2-4.3-3.6L12,74c0.7,2,2.2,3.3,5.1,3.3c-0.2,3.4-3.3,5-7.3,5c-4.9,0-7.1-3.7-7.1-8.6c0-2.2,0.5-5.4,1.9-9.1l-3,2.1  c-1,2.8-1.6,5.4-1.6,7.7c0,6.1,3.5,10.6,9.8,10.6c6.3,0,10.1-3.4,10.1-7.8h6.1h1h5.6h1H39h1h5.6h1h5.6h1h5.9h0.7h1.5  C65.3,77.3,68,74.5,68,70.3z"></path>	<path class="st0" d="M65.5,84.3c0-1.1-0.5-1.7-1.7-1.7c-1.1,0-1.7,0.6-1.7,1.7s0.6,1.7,1.7,1.7C64.9,86,65.5,85.4,65.5,84.3z"></path>	<path class="st0" d="M79,59.9c-2.1,0.1-4,1-5.4,2.6v3.4c1.4-2,3.3-3.4,5.4-3.4c2.5,0,4.4,1.5,4.4,4.7v7.5H73.2l-1.7,2.6h14.7V67  C86.2,62.6,83.3,59.8,79,59.9z"></path>	<path class="st0" d="M115.1,63.5h-6.3v-1.4c0-1.5,1-2.8,2.4-2.8c0.7,0,1.3,0.4,2,1l1.4-1.4c-1-1-2-1.4-3.1-1.4  c-2.9,0-4.6,2.2-4.6,5v1H105l-1.7,1.8h11.7V63.5z"></path>	<path class="st0" d="M123.6,51.3l-2.7,0.9V70c0,3.2-1.5,4.7-4.3,4.7h-13.2c-2.9,0-4.4-1.5-4.4-4.7v-8.4l-2.7,3.4v5.3  c0,4.3,2.6,7,6.6,7h13.9c4,0,6.9-2.7,6.9-7V51.3z"></path>	<path class="st0" d="M134.8,76.2c0,3.4-1.7,6.4-5.2,6.4c-1.4,0-3.2-0.2-5.2-1.4l1.3,2.9c1.3,0.6,3.1,0.9,4.2,0.9  c5.6,0,7.8-4.2,7.7-9.4V59.1l-2.7,0.9V76.2z"></path>	<path class="st0" d="M223.3,84.3c0-1.1-0.5-1.7-1.7-1.7c-1.1,0-1.7,0.6-1.7,1.7s0.6,1.7,1.7,1.7C222.8,86,223.3,85.4,223.3,84.3z"></path>	<path class="st0" d="M221.2,58.8c-2.7,0-5.3,1.2-7.9,3.6l1.8,1.9c2-1.9,4.2-2.9,6.1-2.9c6.1,0,6.4,5.4,6.5,10.7v2.7h-17.4h-0.4H208  c-3,0-4.4-1.6-4.4-4.8c-0.4-4.6-2.6-7.4-7.1-7.4c-5,0-7.1,3.5-7.2,8.3c-0.3,2.5-1.8,3.9-4.3,3.9h-1.2h-0.7h-5.9h-1h-5.6h-1h-5.6h-1  h-5.6h-1h-5.9h-0.7h-3.2c-1.5,0-2.2-0.8-2.2-2.5v-21l-2.8,0.8v20.2c0,3.3,1.6,5,4.6,5h3.6h0.7h5.9h1h5.6h1h5.6h1h5.6h1h5.9h0.7h1.5  c1.9,0,3.6-0.6,4.8-1.7c1.1,2.8,3.1,4.3,6.5,4.3c3.3,0,5.6-1.7,6.5-4.7c1.4,1.4,3,2,5.2,2h1.6h0.4h20.3v-6.1  C230.6,65.1,229.4,58.8,221.2,58.8z M196.5,77.4c-3.1,0-4.3-2-4.3-6.2c0-4.2,1.3-6.1,4.3-6.1c3.1,0,4.2,1.9,4.2,6.1  C200.7,75.4,199.5,77.4,196.5,77.4z"></path></g><g>	<g>		<path class="st1" d="M371.1,106.5c0,0,4.7-7.5-10.6-10.5c-16.4-3.2-33-1.5-45.8,4.2c-12.8,5.8-16.4,4-16.4,4s7.8-3.6,31.3,3   c16.4,4.6,33.6,3.7,36.4,2.4C368.8,108.3,371.1,106.5,371.1,106.5z"></path>		<path class="st2" d="M283.1,74.1c-3.1-2.7-9.4-8.9-12.7-19c-1-3.1-2.9-9-1.9-16.3c1.6-12.1,9.5-23.1,9.5-23   c-2.2,1.7-20.7,16.9-20.2,38.7c0.2,11.5,5.9,21.6,6.9,23.3c3,5.2,6.1,8.5,9,11.5c11.6,12.2,23.9,18.3,30,21.2   c6.8,3.3,12.7,5.2,15.6,6.1c4.9,1.6,8.1,2.3,14.2,3.7c8.7,2,12.7,2.5,17.1,1.8c1.1-0.2,2.6-0.6,3.7-1.3   c5.8-3.7,12.3-8.8,16.7-14.4c0,0,0-0.1,0-0.1c-13.8-1.3-25.8-3.4-34.2-5.5c-8.9-2.2-16.6-4.2-26-8.6   C298.5,86.8,289.4,79.8,283.1,74.1z"></path>		<path class="st3" d="M306.2,65.7c-3.1,2.1-0.1,6.8,3.1,5c0.7-0.4,1.5-0.8,2.1-1.2c7.3-3.9,22.1-7.2,38.9-3.9   c16,3.2,23.9,3,29.3,1.1c3.2-1.2,5.7-5.1,5.7-5.1s0.8-7-17.7-8.9C353.3,51.3,326.2,52.5,306.2,65.7z"></path>		<path class="st4" d="M375,31.3c0.3-0.8,0.1-1.6-0.4-2.3c-1.5-1.6-5.4-4.5-12.1-5.3c-7.2-0.9-25.4-3.4-46.3,4.8   c-2.7,1.1,1.7,5,4.4,4.1l-2.7,0.7c0,0-4.9-0.7,11.1,0.5c13,1,27.1,5,34.4,4.2C369.9,37.3,373.7,34.8,375,31.3z"></path>		<path class="st2" d="M311.7,123.8c11.7-3.6,19.7-2.3,24.2-0.9c0.9,0.3,6.1,1.8,5.9,3.3c-0.1,1.3-4.4,2.2-9.2,3.1   c-1.9,0.4-3.3,0.6-5.5,0.9c-9.8,1-18-0.5-19.1-0.7c-0.7-0.1-6.8-1.4-13.1-4.1c-8.3-3.6-26.4-14-35.1-35.5   c-5.4-13.3-5-25.4-4.1-32.2c-0.3,6.4-0.4,27.7,14.2,44.8c9.2,10.8,21.4,16.5,25.8,18.6c2.2,1,7.4,3.3,14.3,5   c7.4,1.8,12.4,1.8,15.3,1.6c2.9-0.2,7.6-0.8,7.6-1.6c0-0.9-5.8-1.8-7.1-1.9C322.2,123.6,317.5,123.3,311.7,123.8z"></path>		<path class="st5" d="M336.2,7.7c-0.3,0.2-2.1,1.2-2.4,3.1c-0.2,1.2,0.2,2.2,0.4,2.6c0.8,1.8,2.4,3,4.5,3.9c0.8,0.4,4,1.8,11.7,2.5   c2,0.2,4.7,0.2,7.9,0c3.7-0.2,5.5-0.4,5.9-1.2c1.1-2.5-8.6-9-9.2-9.4c-1.6-1.1-7.8-5-15.8-6.7c-2.8-0.6-6.2-1.2-7.5-1.4   c-0.3,0-3.2-0.5-6.9-0.7c-0.2,0,8.3,2.1,12,3.1c1.6,0.4,3.6,1,5.7,1.8c1.4,0.5,2.3,1,4.3,1.9c3,1.5,4.5,2.4,5.9,3.7   c0.9,0.9,1.4,1.4,1.3,1.9c-0.2,1.4-4.1,2.1-6.8,2.2c-3,0-9.5-0.7-10.2-4.1c-0.5-2.3,3.7-4.4,4.9-4.4C346,6.6,339.3,6.1,336.2,7.7z   "></path>		<path class="st5" d="M365.3,34.8c-1.7,0.3-3.3,0.7-5.1,0.7c-2.6,0.1-5.3,0.3-9.5,0c-6.4-0.5-11.4-1.4-12.9-1.7   c-11.9-2.3-17.8-3.6-23.6-8c-4.7-3.6-5.6-6.5-5.8-8.3c-0.4-3.1,1-5.7,1.7-6.9c2.3-4.2,6.3-6.2,8-7c1.1-0.5,2-0.8,2.6-1.1   c-2.5,0.2-4.6,0.7-6.1,1.2c-1.1,0.3-2.9,0.9-5.1,2c-2.1,1.1-3.7,2.3-4.9,3.3c-1.4,1.2-4.1,3.7-5,7.6c-1.2,5,1.1,9.3,2.1,11.2   c9.1,17.1,42.9,21.3,46.7,21.8l0,0c4.9,0.7,9.1,1,12.2,1.2c11.9,0.7,17.2-0.3,19.9-1c1.2-0.3,2.3-0.7,2.9-1.1c0,0,0,0,0,0   c0,0,0,0,0,0c0,0-2-9.3-8.7-19.5C375.9,31.1,370,33.9,365.3,34.8z"></path>		<path class="st6" d="M350.8,62.7c-32.6-8.4-50.6-20.2-57.6-30.2c-6.9-9.9-6.3-28.2,24.3-32.4c0.1,0,0.1-0.1,0-0.1   C312,0.1,285,1.9,277.9,24c-9.7,30.2,39.9,55.3,48.6,58.9c8.8,3.7,31.1,13.8,52.6,7.9c0.8-0.2,1.5-1,1.9-1.7   c5.3-11.4,4.3-27.2,4.3-27.7C385.3,61,372.2,68.2,350.8,62.7z"></path>	</g></g></svg>