<svg xmlns="http://www.w3.org/2000/svg" width="375" height="208" viewBox="0 0 375 208" fill="none"><g clip-path="url(#clip0_68_2)"><path d="M20.4515 0H204.449C240.231 0 269.273 29.021 269.273 64.7771V187.563C269.273 198.838 260.105 208 248.822 208H64.8238C29.0419 208 0 178.979 0 143.223V20.4368C0 9.16191 9.1685 0 20.4515 0Z" fill="white"></path><path d="M367.071 202.536L286.784 147.201C282.026 143.916 279.185 138.518 279.185 132.74V75.2432C279.185 69.4654 282.026 64.0673 286.784 60.7822L367.071 5.46413C370.424 3.15302 375 5.54667 375 9.62413V198.376C375 202.453 370.424 204.847 367.071 202.536Z" fill="white"></path></g><defs><clipPath id="clip0_68_2"><rect width="375" height="208" fill="white"></rect></clipPath></defs></svg>