<svg xmlns="http://www.w3.org/2000/svg" width="198" height="34" viewBox="0 0 198 34" fill="none"><path d="M7.676 21.9277C7.21196 21.5041 6.65981 21.1886 6.05926 21.0039C5.44621 20.798 4.80393 20.6923 4.15723 20.6913H0.217285V30.6907H3.93984C4.58708 30.7066 5.23298 30.6241 5.85548 30.4461C6.47355 30.2452 7.04927 29.932 7.55373 29.5222C8.12113 29.0738 8.5753 28.4985 8.87971 27.8425C9.18411 27.1865 9.33027 26.4682 9.30634 25.7454C9.31912 24.9862 9.17577 24.2324 8.88518 23.5309C8.62285 22.9372 8.23325 22.4085 7.74396 21.9821L7.676 21.9277ZM7.11897 27.3077C6.91818 27.7217 6.6198 28.0807 6.24949 28.3538C5.86029 28.6288 5.42223 28.8271 4.9588 28.9381C4.44445 29.0722 3.91431 29.1362 3.38281 29.1283H2.02421V22.3353H3.64095C4.15013 22.3265 4.65798 22.3905 5.14902 22.5255C5.57803 22.6395 5.9799 22.838 6.331 23.1096C6.67681 23.3927 6.94745 23.7567 7.11897 24.1694C7.31528 24.6614 7.4078 25.1887 7.39071 25.7182C7.40985 26.2563 7.30283 26.7914 7.07821 27.2806" fill="#050509"></path><path d="M15.2434 27.6067C15.2447 27.8267 15.2173 28.0459 15.1618 28.2588C15.1173 28.4618 15.0267 28.6518 14.8972 28.8143C14.7676 28.9769 14.6025 29.1074 14.4146 29.1961C14.1877 29.2946 13.9417 29.3411 13.6945 29.3321C13.4468 29.3474 13.2016 29.2753 13.0017 29.1283C12.8336 28.9995 12.7062 28.825 12.6348 28.6256C12.5501 28.4177 12.4997 28.1975 12.4854 27.9735C12.473 27.7654 12.473 27.5566 12.4854 27.3484V23.9111H10.7871V28.1908C10.7859 28.5297 10.827 28.8674 10.9094 29.1961C10.9989 29.5063 11.1465 29.7968 11.3442 30.0521C11.5488 30.3034 11.8093 30.5036 12.105 30.6363C12.4695 30.7921 12.8636 30.8664 13.2598 30.8537C13.7407 30.8845 14.2183 30.7555 14.6184 30.4869C14.9353 30.2573 15.1917 29.9543 15.3656 29.6038V30.6907H16.9688V23.8977H15.2705L15.2434 27.6067Z" fill="#050509"></path><path d="M25.2564 24.7671C24.9617 24.4499 24.6059 24.1958 24.2103 24.0199C23.7841 23.827 23.3194 23.734 22.8517 23.7481C22.568 23.7422 22.2847 23.7743 22.0094 23.8433C21.7822 23.9021 21.5631 23.9887 21.3572 24.1014C21.1845 24.1876 21.0244 24.2973 20.8817 24.4274C20.7625 24.53 20.6533 24.6437 20.5557 24.7671V20.012H18.8574V30.6907H20.4742V29.6718C20.6945 30.0737 21.0439 30.3895 21.4659 30.5683C21.8917 30.7641 22.356 30.8617 22.8245 30.8538C23.2915 30.8603 23.7546 30.7676 24.1831 30.5819C24.5901 30.4131 24.9528 30.1529 25.2428 29.8212C25.5443 29.4983 25.7715 29.1134 25.9086 28.6935C26.0589 28.2562 26.1369 27.7973 26.1395 27.3349C26.1403 26.871 26.0575 26.4107 25.895 25.9763C25.7442 25.5586 25.5187 25.1719 25.2293 24.8351L25.2564 24.7671ZM24.3054 28.1365C24.2171 28.3731 24.0833 28.59 23.9114 28.7751C23.7332 28.966 23.5213 29.1225 23.2864 29.2369C23.0202 29.3496 22.7332 29.4052 22.4441 29.4C22.1594 29.4049 21.877 29.3493 21.6154 29.2369C21.3805 29.1225 21.1687 28.966 20.9904 28.7751C20.8142 28.5934 20.6797 28.3755 20.5964 28.1365C20.5032 27.8891 20.4572 27.6264 20.4606 27.3621C20.4582 27.1022 20.5043 26.8443 20.5964 26.6013C20.6763 26.3607 20.8112 26.142 20.9904 25.9627C21.1687 25.7717 21.3805 25.6152 21.6154 25.5008C21.877 25.3884 22.1594 25.3328 22.4441 25.3377C22.7332 25.3325 23.0202 25.3881 23.2864 25.5008C23.5213 25.6152 23.7332 25.7717 23.9114 25.9627C24.086 26.1456 24.2202 26.3632 24.3054 26.6013C24.3975 26.8443 24.4436 27.1022 24.4413 27.3621C24.4447 27.6264 24.3986 27.8891 24.3054 28.1365Z" fill="#050509"></path><path d="M33.3264 25.5823C33.2712 25.3453 33.1844 25.1168 33.0683 24.903C32.9397 24.6779 32.769 24.4795 32.5656 24.3187C32.3207 24.1348 32.0445 23.9967 31.7504 23.9111C31.3585 23.7934 30.9504 23.7384 30.5413 23.748C30.0108 23.7464 29.4835 23.829 28.9789 23.9927C28.4626 24.1553 27.9955 24.4449 27.6203 24.835L28.5034 25.7181C28.7344 25.4954 29.0067 25.32 29.305 25.2018C29.625 25.0753 29.9662 25.0108 30.3103 25.0116C30.7052 24.9966 31.0949 25.1059 31.4244 25.3241C31.5721 25.4354 31.6893 25.5822 31.7653 25.7508C31.8413 25.9194 31.8736 26.1043 31.8592 26.2886V26.4652H31.4379H30.5413C30.2226 26.476 29.9048 26.5079 29.5903 26.5604C29.2799 26.6068 28.9749 26.6843 28.68 26.7915C28.4 26.8874 28.1383 27.0297 27.9056 27.2125C27.6832 27.3883 27.5023 27.611 27.3757 27.8646C27.2326 28.1559 27.1627 28.4778 27.172 28.8022C27.1697 29.11 27.2444 29.4135 27.3893 29.6851C27.5254 29.9366 27.7157 30.1549 27.9464 30.3238C28.1846 30.4959 28.4514 30.6246 28.7343 30.7041C29.0309 30.7855 29.3371 30.8268 29.6446 30.8265C30.0753 30.8345 30.5023 30.7462 30.8945 30.5682C31.2779 30.3833 31.5989 30.0906 31.8184 29.7259V30.6634H33.3536V26.7643C33.3536 26.6012 33.3536 26.4246 33.3536 26.2072C33.3419 25.9874 33.3101 25.7691 33.2585 25.5551L33.3264 25.5823ZM31.7368 28.0005C31.7506 28.2096 31.7202 28.4193 31.6477 28.6159C31.5751 28.8125 31.462 28.9918 31.3157 29.1418C31.1326 29.3053 30.9166 29.4275 30.6822 29.5002C30.4478 29.5729 30.2005 29.5942 29.9571 29.5629C29.8173 29.5819 29.6757 29.5819 29.5359 29.5629C29.3987 29.5371 29.2688 29.4815 29.1555 29.3999C29.0458 29.3307 28.953 29.2379 28.8838 29.1282C28.8099 29.0053 28.7722 28.864 28.7751 28.7206C28.7708 28.6106 28.7932 28.5012 28.8406 28.4018C28.8879 28.3024 28.9587 28.216 29.0468 28.1501C29.2443 28.0086 29.465 27.9027 29.6989 27.8374C29.9709 27.7691 30.2481 27.7237 30.5277 27.7016H31.3157H31.6689L31.7368 28.0005Z" fill="#050509"></path><path d="M36.9675 23.9111H35.2693V30.6906H36.9675V23.9111Z" fill="#050509"></path><path d="M36.098 22.6205C36.3873 22.6288 36.669 22.5268 36.8859 22.3352C36.9842 22.2414 37.0623 22.1285 37.1158 22.0035C37.1692 21.8786 37.1967 21.7442 37.1967 21.6083C37.1967 21.4725 37.1692 21.338 37.1158 21.2131C37.0623 21.0882 36.9842 20.9753 36.8859 20.8814C36.669 20.6898 36.3873 20.5879 36.098 20.5962C35.9597 20.5888 35.8213 20.6097 35.6913 20.6575C35.5613 20.7054 35.4425 20.7793 35.342 20.8746C35.2416 20.97 35.1617 21.085 35.1071 21.2123C35.0525 21.3396 35.0245 21.4766 35.0247 21.6151C35.027 21.8809 35.1345 22.1349 35.3236 22.3216C35.4254 22.4217 35.5466 22.4998 35.6798 22.5512C35.813 22.6026 35.9553 22.6261 36.098 22.6205Z" fill="#050509"></path><path d="M43.2441 20.6913H47.1841C47.8308 20.6923 48.4731 20.798 49.0862 21.0039C49.6867 21.1886 50.2389 21.5041 50.7029 21.9277C51.1922 22.3541 51.5818 22.8828 51.8441 23.4765C52.1347 24.178 52.2781 24.9318 52.2653 25.691C52.2892 26.4138 52.1431 27.1321 51.8387 27.7881C51.5343 28.4441 51.0801 29.0196 50.5127 29.468C50.0108 29.8784 49.434 30.1874 48.8144 30.3781C48.2187 30.5786 47.5952 30.6841 46.9667 30.6907H43.2441V20.6913ZM46.3418 29.0739C46.8733 29.0819 47.4034 29.0178 47.9177 28.8837C48.4049 28.7811 48.8667 28.5826 49.2763 28.2996C49.6467 28.0265 49.9451 27.6675 50.1459 27.2534C50.3752 26.7653 50.4868 26.2301 50.4719 25.691C50.4859 25.1605 50.3887 24.6329 50.1866 24.1422C50.0151 23.7295 49.7444 23.3655 49.3986 23.0824C49.0509 22.8055 48.6478 22.6064 48.2166 22.4983C47.6957 22.3495 47.1551 22.2807 46.6135 22.2945H44.9968V29.0875L46.3418 29.0739Z" fill="#0047BB"></path><path d="M55.0777 27.892C55.0946 28.1187 55.156 28.3398 55.2586 28.5426C55.3612 28.7455 55.5029 28.9261 55.6755 29.074C56.0226 29.3602 56.4621 29.5101 56.9118 29.4953C57.2822 29.5099 57.6493 29.4204 57.9715 29.237C58.258 29.0613 58.5148 28.8412 58.7323 28.5849L59.9415 29.4953C59.5887 29.9575 59.12 30.3183 58.5829 30.5412C58.0993 30.7539 57.5758 30.8606 57.0476 30.8539C56.5571 30.8566 56.0697 30.7738 55.6075 30.6092C55.1772 30.4429 54.7812 30.1988 54.4392 29.8891C54.1046 29.569 53.8367 29.1858 53.6511 28.7616C53.2712 27.825 53.2712 26.7771 53.6511 25.8405C53.8335 25.4151 54.1012 25.0316 54.4377 24.7138C54.7742 24.396 55.1724 24.1506 55.6075 23.9929C56.0697 23.8283 56.5571 23.7455 57.0476 23.7482C57.4899 23.7428 57.9287 23.8261 58.3383 23.9929C58.723 24.1485 59.0669 24.3902 59.3437 24.6994C59.6323 25.0395 59.8536 25.4313 59.9958 25.8541C60.1554 26.364 60.2333 26.8959 60.2268 27.4302V27.892H55.0777ZM58.5557 26.6285C58.5624 26.4105 58.5249 26.1934 58.4456 25.9903C58.3662 25.7872 58.2465 25.6022 58.0938 25.4465C57.7458 25.1417 57.2921 24.9857 56.8303 25.0118C56.612 25.0004 56.3937 25.0331 56.1883 25.1078C55.9829 25.1825 55.7947 25.2976 55.6347 25.4465C55.3226 25.7675 55.1266 26.1834 55.0777 26.6285H58.5557Z" fill="#0047BB"></path><path d="M60.6616 23.9111H62.5093L64.3298 28.6662H64.357L66.1775 23.9111H67.903L65.2401 30.6906H63.4332L60.6616 23.9111Z" fill="#0047BB"></path><path d="M70.0087 27.892C70.0225 28.1194 70.0827 28.3415 70.1855 28.5448C70.2883 28.748 70.4315 28.9281 70.6065 29.074C70.9481 29.3604 71.3836 29.5105 71.8292 29.4952C72.1996 29.5099 72.5667 29.4204 72.8889 29.237C73.1754 29.0612 73.4322 28.8411 73.6497 28.5849L74.8589 29.4952C74.5075 29.9589 74.0384 30.32 73.5003 30.5412C73.0119 30.7538 72.484 30.8604 71.9515 30.8538C71.4609 30.8554 70.9738 30.7727 70.5113 30.6092C70.0762 30.4515 69.678 30.2061 69.3415 29.8883C69.005 29.5705 68.7373 29.187 68.5549 28.7615C68.175 27.8249 68.175 26.7771 68.5549 25.8405C68.7455 25.4191 69.0128 25.0368 69.343 24.7129C69.6814 24.3985 70.0784 24.1538 70.5113 23.9928C70.9738 23.8294 71.4609 23.7466 71.9515 23.7482C72.3938 23.7413 72.833 23.8246 73.2421 23.9928C73.6268 24.1485 73.9707 24.3901 74.2475 24.6993C74.5411 25.036 74.763 25.4289 74.8996 25.8541C75.0592 26.364 75.1372 26.8959 75.1306 27.4301V27.892H70.0087ZM73.4731 26.6284C73.4831 26.4101 73.4471 26.192 73.3676 25.9884C73.288 25.7848 73.1666 25.6002 73.0112 25.4465C72.6674 25.1438 72.2187 24.9878 71.7613 25.0118C71.541 25.0009 71.3208 25.0337 71.1132 25.1083C70.9057 25.1829 70.715 25.2978 70.5521 25.4465C70.2441 25.7688 70.0528 26.1848 70.0087 26.6284H73.4731Z" fill="#0047BB"></path><path d="M78.4729 20.0256H76.7747V30.7042H78.4729V20.0256Z" fill="#0047BB"></path><path d="M80.0353 27.2942C80.0286 26.7951 80.1258 26.3 80.3206 25.8404C80.5016 25.4136 80.77 25.0295 81.1087 24.7129C81.4451 24.3958 81.8426 24.1508 82.277 23.9928C82.7389 23.8269 83.2264 23.744 83.7171 23.7481C84.2077 23.7454 84.6951 23.8282 85.1573 23.9928C85.5902 24.1538 85.9873 24.3985 86.3257 24.7129C86.6559 25.0367 86.9231 25.419 87.1137 25.8404C87.4936 26.777 87.4936 27.8249 87.1137 28.7615C86.9231 29.1829 86.6559 29.5652 86.3257 29.889C85.9873 30.2034 85.5902 30.4481 85.1573 30.6091C84.6951 30.7737 84.2077 30.8565 83.7171 30.8538C83.2264 30.8579 82.7389 30.775 82.277 30.6091C81.8426 30.4511 81.4451 30.2061 81.1087 29.889C80.77 29.5724 80.5016 29.1883 80.3206 28.7615C80.1247 28.2975 80.0276 27.7978 80.0353 27.2942ZM81.72 27.2942C81.7166 27.5586 81.7627 27.8212 81.8559 28.0686C81.9411 28.3066 82.0753 28.5241 82.2499 28.7071C82.4282 28.898 82.64 29.0547 82.8748 29.1691C83.1411 29.2818 83.4281 29.3374 83.7171 29.3321C84.0018 29.3371 84.2843 29.2815 84.5459 29.1691C84.7828 29.0582 84.9953 28.901 85.1709 28.7071C85.3501 28.5277 85.485 28.3091 85.5649 28.0686C85.6581 27.8212 85.7041 27.5586 85.7007 27.2942C85.7031 27.0344 85.657 26.7763 85.5649 26.5333C85.485 26.2928 85.3501 26.0742 85.1709 25.8948C84.9953 25.7009 84.7828 25.5439 84.5459 25.433C84.2843 25.3205 84.0018 25.2648 83.7171 25.2698C83.4281 25.2645 83.1411 25.3202 82.8748 25.433C82.64 25.5474 82.4282 25.7039 82.2499 25.8948C82.0753 26.0778 81.9411 26.2953 81.8559 26.5333C81.7637 26.7763 81.7176 27.0344 81.72 27.2942Z" fill="#0047BB"></path><path d="M88.9341 23.9112H90.5508V24.9301C90.7732 24.5315 91.1155 24.2131 91.529 24.0199C91.9588 23.8385 92.421 23.7459 92.8876 23.7481C93.3546 23.7416 93.8177 23.8343 94.2462 24.0199C94.6499 24.1885 95.0116 24.4435 95.3059 24.7671C95.6001 25.1005 95.8262 25.4883 95.9716 25.9084C96.1188 26.3461 96.1923 26.8052 96.189 27.267C96.1927 27.73 96.1145 28.1899 95.9581 28.6256C95.8055 29.0413 95.5749 29.424 95.2788 29.7532C94.9961 30.0812 94.6432 30.3413 94.2462 30.5141C93.82 30.707 93.3553 30.7999 92.8876 30.7858C92.6039 30.7916 92.3206 30.7597 92.0453 30.6907C91.8181 30.632 91.599 30.5452 91.3931 30.4325C91.2203 30.3463 91.0603 30.2366 90.9176 30.1065C90.7946 30.0028 90.6851 29.8841 90.5916 29.7532V33.829H88.8933L88.9341 23.9112ZM94.5587 27.2942C94.5545 27.035 94.5086 26.778 94.4228 26.5333C94.3376 26.2953 94.2034 26.0778 94.0288 25.8948C93.8506 25.7039 93.6387 25.5474 93.4039 25.4329C93.1376 25.3202 92.8507 25.2645 92.5616 25.2698C92.2769 25.2648 91.9944 25.3205 91.7328 25.4329C91.4959 25.5439 91.2834 25.7009 91.1078 25.8948C90.9286 26.0741 90.7937 26.2927 90.7138 26.5333C90.6217 26.7763 90.5756 27.0344 90.578 27.2942C90.5746 27.5586 90.6206 27.8212 90.7138 28.0686C90.7937 28.3091 90.9286 28.5277 91.1078 28.7071C91.2834 28.901 91.4959 29.0582 91.7328 29.1691C91.9944 29.2815 92.2769 29.3371 92.5616 29.3321C92.8507 29.3374 93.1376 29.2818 93.4039 29.1691C93.6387 29.0547 93.8506 28.898 94.0288 28.7071C94.2034 28.5241 94.3376 28.3066 94.4228 28.0686C94.5096 27.8194 94.5555 27.558 94.5587 27.2942Z" fill="#0047BB"></path><path d="M97.7649 23.9112H99.368V24.9709C99.5522 24.5824 99.8488 24.258 100.219 24.04C100.59 23.822 101.018 23.7203 101.447 23.7481C101.887 23.7015 102.331 23.798 102.713 24.0231C103.095 24.2482 103.394 24.59 103.566 24.9981C103.773 24.6013 104.089 24.2716 104.476 24.0472C104.896 23.8313 105.364 23.7282 105.835 23.7481C106.227 23.7348 106.617 23.8091 106.976 23.9656C107.278 24.1076 107.539 24.3223 107.737 24.5905C107.935 24.8673 108.073 25.1818 108.145 25.5144C108.24 25.8872 108.286 26.2708 108.281 26.6556V30.7314H106.582V26.8866C106.603 26.6879 106.603 26.4874 106.582 26.2887C106.549 26.1092 106.479 25.9382 106.378 25.786C106.287 25.6353 106.155 25.5131 105.998 25.433C105.802 25.3433 105.588 25.3012 105.373 25.3106C105.142 25.3029 104.913 25.3544 104.707 25.46C104.528 25.5532 104.374 25.6884 104.259 25.854C104.138 26.0214 104.05 26.2105 104.001 26.4111C103.947 26.6244 103.92 26.8433 103.919 27.0632V30.7314H102.235V26.6556C102.252 26.296 102.157 25.94 101.963 25.6366C101.857 25.5079 101.721 25.4072 101.567 25.3432C101.413 25.2793 101.246 25.254 101.08 25.2698C100.833 25.2593 100.586 25.306 100.36 25.4058C100.175 25.4949 100.012 25.6249 99.8843 25.786C99.755 25.9521 99.6582 26.1411 99.599 26.3431C99.5436 26.556 99.5162 26.7752 99.5175 26.9952V30.6907H97.8328L97.7649 23.9112Z" fill="#0047BB"></path><path d="M111.419 27.892C111.436 28.1187 111.497 28.3398 111.6 28.5426C111.703 28.7455 111.844 28.9261 112.017 29.074C112.36 29.3582 112.794 29.508 113.24 29.4953C113.614 29.5118 113.986 29.4222 114.313 29.237C114.598 29.0647 114.851 28.8441 115.06 28.5849L116.283 29.4953C115.93 29.9575 115.461 30.3183 114.924 30.5412C114.44 30.7527 113.917 30.8594 113.389 30.8539C112.898 30.8566 112.411 30.7738 111.949 30.6092C111.519 30.4429 111.122 30.1988 110.78 29.8891C110.446 29.569 110.178 29.1858 109.992 28.7616C109.613 27.825 109.613 26.7771 109.992 25.8405C110.175 25.4151 110.442 25.0316 110.779 24.7138C111.116 24.396 111.514 24.1506 111.949 23.9929C112.411 23.8283 112.898 23.7455 113.389 23.7482C113.831 23.7428 114.27 23.8261 114.68 23.9929C115.064 24.1485 115.408 24.3902 115.685 24.6994C115.974 25.0395 116.195 25.4313 116.337 25.8541C116.497 26.364 116.575 26.8959 116.568 27.4302V27.892H111.419ZM114.897 26.6285C114.904 26.4105 114.866 26.1934 114.787 25.9903C114.707 25.7872 114.588 25.6022 114.435 25.4465C114.087 25.1417 113.633 24.9857 113.172 25.0118C112.727 24.9913 112.292 25.1475 111.962 25.4465C111.659 25.7722 111.469 26.1865 111.419 26.6285H114.897Z" fill="#0047BB"></path><path d="M118.158 23.9111H119.774V24.9981C119.935 24.6429 120.188 24.3378 120.508 24.115C120.908 23.8464 121.386 23.7174 121.867 23.7481C122.263 23.7355 122.657 23.8097 123.021 23.9655C123.32 24.1065 123.584 24.3105 123.796 24.5634C123.992 24.8127 124.135 25.0993 124.217 25.4057C124.299 25.7345 124.341 26.0722 124.339 26.4111V30.6907H122.695V27.2534C122.708 27.0453 122.708 26.8365 122.695 26.6283C122.681 26.4043 122.631 26.1841 122.546 25.9762C122.473 25.7776 122.346 25.6034 122.179 25.4736C121.978 25.3296 121.734 25.2578 121.486 25.2697C121.243 25.2594 121.002 25.3061 120.78 25.4057C120.59 25.4932 120.422 25.6232 120.291 25.786C120.165 25.9526 120.073 26.1417 120.019 26.3431C119.964 26.556 119.936 26.7752 119.937 26.9952V30.6907H118.239L118.158 23.9111Z" fill="#0047BB"></path><path d="M125.413 25.3513V23.9111H126.771V21.9548H128.469V23.9111H130.331V25.3513H128.469V28.3132C128.448 28.5936 128.515 28.8736 128.66 29.1147C128.748 29.2249 128.863 29.3104 128.994 29.3628C129.125 29.4152 129.267 29.4326 129.407 29.4136H129.91C130.058 29.3831 130.2 29.328 130.331 29.2505V30.6771C130.118 30.765 129.894 30.8244 129.665 30.8538H128.986C128.609 30.868 128.232 30.8173 127.872 30.7042C127.61 30.6252 127.378 30.469 127.206 30.2559C127.031 30.0395 126.915 29.7825 126.866 29.5087C126.797 29.1644 126.765 28.8137 126.771 28.4626V25.3513H125.413Z" fill="#0047BB"></path><path d="M139.882 20.6913L135.534 30.6907H137.531L138.428 28.3946H142.762L143.699 30.6907H145.792L141.485 20.6913H139.882ZM139.039 26.873L140.602 22.7972L142.137 26.873H139.039Z" fill="#050509"></path><path d="M150.968 27.6067C150.969 27.8267 150.942 28.0459 150.886 28.2588C150.827 28.4608 150.73 28.6498 150.601 28.8158C150.471 28.9745 150.309 29.104 150.126 29.1961C149.899 29.2959 149.653 29.3425 149.405 29.3321C149.158 29.3474 148.913 29.2753 148.713 29.1283C148.553 28.9914 148.428 28.8193 148.346 28.6256C148.261 28.4177 148.211 28.1975 148.196 27.9735C148.196 27.7426 148.196 27.5251 148.196 27.3484V23.9111H146.471V28.1908C146.467 28.5307 146.513 28.8693 146.607 29.1961C146.686 29.5078 146.829 29.7994 147.028 30.0521C147.233 30.3034 147.493 30.5036 147.789 30.6363C148.153 30.7921 148.547 30.8664 148.944 30.8537C149.424 30.8834 149.902 30.7546 150.302 30.4869C150.612 30.2531 150.863 29.9508 151.036 29.6038V30.6907H152.639V23.8977H150.954L150.968 27.6067Z" fill="#050509"></path><path d="M156.851 21.9548H155.152V23.9111H153.794V25.3513H155.152V28.4626C155.153 28.8134 155.185 29.1635 155.247 29.5087C155.302 29.7806 155.418 30.0362 155.587 30.2559C155.762 30.4712 155.999 30.6276 156.266 30.7042C156.621 30.8184 156.994 30.8692 157.367 30.8538H158.06C158.284 30.8247 158.503 30.7652 158.712 30.6771V29.2505C158.583 29.3303 158.44 29.3855 158.291 29.4136H157.802C157.66 29.4351 157.515 29.4189 157.381 29.3665C157.247 29.314 157.13 29.2271 157.041 29.1147C156.903 28.8709 156.837 28.593 156.851 28.3132V25.3513H158.712V23.9111H156.851V21.9548Z" fill="#050509"></path><path d="M165.763 24.5634C165.551 24.3105 165.287 24.1065 164.989 23.9655C164.624 23.8097 164.23 23.7355 163.834 23.7481C163.379 23.7285 162.929 23.8469 162.543 24.0878C162.246 24.2782 162.007 24.546 161.85 24.8623V20.012H160.152V30.6907H161.85V26.9952C161.849 26.7752 161.876 26.556 161.932 26.3431C161.978 26.1388 162.07 25.9478 162.202 25.7852C162.334 25.6226 162.502 25.4928 162.693 25.4057C162.914 25.3061 163.156 25.2595 163.399 25.2698C163.647 25.2556 163.892 25.3276 164.092 25.4736C164.259 25.6034 164.386 25.7776 164.459 25.9763C164.544 26.1841 164.594 26.4043 164.608 26.6284C164.621 26.8365 164.621 27.0453 164.608 27.2534V30.6907H166.307V26.3703C166.308 26.0314 166.267 25.6937 166.184 25.3649C166.103 25.0585 165.959 24.7719 165.763 24.5226" fill="#050509"></path><path d="M174.118 24.7129C173.78 24.3985 173.383 24.1538 172.95 23.9928C172.488 23.8293 172 23.7465 171.51 23.7481C171.019 23.744 170.532 23.8269 170.07 23.9928C169.633 24.1538 169.231 24.3984 168.888 24.7129C168.558 25.0338 168.294 25.417 168.113 25.8404C167.916 26.3022 167.815 26.7991 167.815 27.301C167.815 27.803 167.916 28.2997 168.113 28.7615C168.294 29.1849 168.558 29.5681 168.888 29.889C169.235 30.1988 169.635 30.4429 170.07 30.6091C170.532 30.775 171.019 30.8579 171.51 30.8538C172 30.8554 172.488 30.7726 172.95 30.6091C173.385 30.4514 173.783 30.206 174.12 29.8882C174.456 29.5704 174.724 29.1869 174.906 28.7615C175.286 27.8249 175.286 26.777 174.906 25.8404C174.716 25.419 174.449 25.0367 174.118 24.7129ZM173.358 28.0686C173.274 28.3075 173.14 28.5254 172.964 28.7071C172.785 28.898 172.574 29.0547 172.339 29.1691C171.803 29.3859 171.203 29.3859 170.668 29.1691C170.433 29.0547 170.221 28.898 170.043 28.7071C169.871 28.5221 169.737 28.3051 169.649 28.0686C169.555 27.8212 169.509 27.5586 169.513 27.2942C169.51 27.0344 169.556 26.7763 169.649 26.5333C169.734 26.2953 169.868 26.0778 170.043 25.8948C170.221 25.7039 170.433 25.5474 170.668 25.433C171.203 25.2162 171.803 25.2162 172.339 25.433C172.574 25.5474 172.785 25.7039 172.964 25.8948C173.143 26.0742 173.278 26.2928 173.358 26.5333C173.45 26.7763 173.496 27.0344 173.493 27.2942C173.497 27.5586 173.451 27.8212 173.358 28.0686Z" fill="#050509"></path><path d="M180.45 23.7482C180.03 23.7432 179.617 23.8512 179.254 24.0608C178.902 24.2839 178.624 24.605 178.452 24.9846V23.9112H176.754V30.7042H178.398V27.0769C178.383 26.9369 178.383 26.7956 178.398 26.6556C178.449 26.4515 178.537 26.2584 178.656 26.0851C178.802 25.8778 178.992 25.706 179.213 25.5824C179.504 25.4221 179.833 25.3467 180.164 25.365H180.558L180.979 25.4464V23.8162L180.68 23.7482C180.577 23.7348 180.472 23.7348 180.368 23.7482" fill="#050509"></path><path d="M183.031 20.5962C182.891 20.5916 182.751 20.6158 182.62 20.6672C182.489 20.7186 182.37 20.7961 182.27 20.8951C182.174 20.9887 182.098 21.1008 182.047 21.2246C181.996 21.3484 181.97 21.4812 181.971 21.6152C181.969 21.7472 181.995 21.8783 182.046 21.9999C182.098 22.1216 182.174 22.2311 182.27 22.3217C182.37 22.4206 182.489 22.4981 182.62 22.5495C182.751 22.6009 182.891 22.6251 183.031 22.6205C183.321 22.6302 183.603 22.5281 183.819 22.3353C183.917 22.2414 183.995 22.1285 184.049 22.0036C184.102 21.8786 184.13 21.7442 184.13 21.6084C184.13 21.4725 184.102 21.3381 184.049 21.2132C183.995 21.0882 183.917 20.9753 183.819 20.8815C183.603 20.6887 183.321 20.5866 183.031 20.5962Z" fill="#050509"></path><path d="M183.914 23.9111H182.216V30.6906H183.914V23.9111Z" fill="#050509"></path><path d="M188.098 21.9548H186.414V23.9111H185.055V25.3513H186.414V28.4626C186.408 28.8137 186.44 29.1644 186.509 29.5087C186.553 29.7814 186.665 30.0384 186.835 30.2559C187.016 30.4653 187.251 30.6204 187.514 30.7042C187.874 30.8184 188.251 30.8691 188.628 30.8538H189.308C189.536 30.8234 189.76 30.764 189.973 30.6771V29.2505C189.839 29.3294 189.692 29.3846 189.539 29.4136H189.049C188.91 29.434 188.767 29.4171 188.636 29.3646C188.504 29.3121 188.389 29.226 188.302 29.1147C188.153 28.8752 188.081 28.595 188.098 28.3132V25.3513H189.973V23.9111H188.098V21.9548Z" fill="#050509"></path><path d="M196.182 23.9112L194.484 28.6121L192.595 23.9112H190.734L193.628 30.7042L193.302 31.5059C193.22 31.6825 193.152 31.8455 193.085 31.9678C193.022 32.0854 192.939 32.1911 192.84 32.2802C192.736 32.3628 192.615 32.423 192.487 32.4568C192.311 32.4797 192.133 32.4797 191.957 32.4568C191.808 32.4768 191.657 32.4768 191.509 32.4568C191.369 32.4305 191.232 32.3896 191.101 32.3346L190.884 33.8698C191.327 33.9838 191.784 34.0386 192.242 34.0329C192.568 34.0386 192.893 33.9974 193.207 33.9106C193.461 33.8386 193.697 33.7135 193.9 33.5438C194.107 33.3775 194.282 33.1749 194.416 32.9459C194.576 32.6774 194.712 32.3956 194.824 32.1036L198.03 23.8705L196.182 23.9112Z" fill="#050509"></path><path d="M15.882 8.08356V4.00775H14.6049V7.59448C14.6434 8.05586 14.5784 8.52001 14.4147 8.95309C14.3071 9.13189 14.1492 9.27496 13.9607 9.36438C13.7722 9.45381 13.5615 9.48561 13.355 9.45576H3.45077V4.02135H2.17368V9.45576C2.17368 10.991 1.61665 11.6703 0.353154 11.6703H0.217285V12.9065H0.421067C1.10711 12.9453 1.78392 12.734 2.32605 12.3118C2.86817 11.8896 3.23884 11.2852 3.36925 10.6105H13.7218C15.1891 10.6105 15.9363 9.72738 15.9363 7.98837" fill="#0047BB"></path><path d="M48.4611 7.6351C48.4981 8.06981 48.433 8.50722 48.271 8.91228C48.1667 9.09486 48.0098 9.24176 47.8207 9.33385C47.6317 9.42595 47.4193 9.45897 47.2112 9.42855H44.9424C45.0796 8.98912 45.1439 8.53017 45.1326 8.06995V0.733459H43.8962V7.6215C43.9329 8.08283 43.868 8.54659 43.706 8.98011C43.595 9.15878 43.4345 9.30151 43.2439 9.39074C43.0534 9.47997 42.8411 9.51186 42.6328 9.48278H40.3639C40.5128 9.04582 40.5818 8.58561 40.5677 8.12418V4.04837H39.2906V7.6351C39.3354 8.09664 39.2702 8.56223 39.1004 8.99371C38.9928 9.17251 38.8349 9.31558 38.6464 9.405C38.4579 9.49443 38.2472 9.52623 38.0407 9.49638H35.568V8.99371C35.568 5.74664 34.386 4.10277 32.0492 4.10277C31.1324 4.18596 30.253 4.50666 29.4978 5.03316C28.7426 5.55966 28.1376 6.27374 27.7424 7.10523V0.828489H26.4654V9.49638H23.0824V7.051C23.0824 5.17613 22.1042 4.10277 20.3652 4.10277C19.9592 4.09606 19.5568 4.18043 19.1877 4.34971C18.8186 4.51899 18.4921 4.76885 18.2322 5.08092C17.671 5.74345 17.3757 6.59067 17.4035 7.45848C17.374 8.3155 17.6536 9.15453 18.1915 9.82243C18.4374 10.1235 18.7489 10.3645 19.102 10.5269C19.4552 10.6894 19.8407 10.7691 20.2294 10.76H21.588C21.5028 11.0876 21.305 11.3747 21.0292 11.5709C20.7535 11.7672 20.4174 11.8602 20.0799 11.8333H19.8082V13.0695H19.9577C20.646 13.1025 21.3234 12.8876 21.8668 12.4639C22.4102 12.0401 22.7837 11.4356 22.9194 10.76H47.5237C48.991 10.76 49.7382 9.89039 49.7382 8.15138V0.814889H48.4611V7.6351ZM21.751 9.42855H20.2701C20.0253 9.42414 19.7862 9.35354 19.5781 9.2244C19.3701 9.09525 19.2007 8.91231 19.0881 8.69485C18.8487 8.28206 18.7222 7.81347 18.7213 7.33625C18.7248 6.85178 18.8713 6.37914 19.1425 5.97765C19.2622 5.77032 19.4345 5.59824 19.6421 5.47895C19.8497 5.35966 20.0851 5.2974 20.3245 5.29835C20.5277 5.28691 20.7308 5.32125 20.9189 5.39885C21.1071 5.47645 21.2754 5.59527 21.4114 5.74663C21.6393 6.00477 21.7607 6.33992 21.751 6.68415V9.42855ZM34.223 9.42855H27.593C28.2995 7.15969 30.3102 5.21692 31.9406 5.21692C33.2992 5.21692 34.2366 6.57545 34.2366 8.70845C34.2366 8.93942 34.2366 9.17042 34.2366 9.42855" fill="#0047BB"></path><path d="M15.8004 11.711C15.6422 11.564 15.4321 11.4859 15.2162 11.4937C15.1093 11.4891 15.0025 11.506 14.9021 11.5433C14.8018 11.5806 14.7099 11.6376 14.632 11.711C14.5604 11.7818 14.5042 11.8666 14.4668 11.9601C14.4294 12.0536 14.4116 12.1538 14.4146 12.2545C14.4127 12.3529 14.431 12.4507 14.4684 12.5419C14.5058 12.633 14.5615 12.7156 14.632 12.7843C14.7099 12.8577 14.8018 12.9148 14.9021 12.9522C15.0025 12.9895 15.1093 13.0064 15.2162 13.0018C15.4321 13.0096 15.6422 12.9313 15.8004 12.7843C15.8748 12.7178 15.9339 12.6361 15.9738 12.5447C16.0136 12.4532 16.0333 12.3542 16.0314 12.2545C16.0335 12.1527 16.014 12.0516 15.9742 11.9579C15.9343 11.8643 15.8752 11.7801 15.8004 11.711Z" fill="#0047BB"></path><path d="M13.7896 11.7109C13.6314 11.5639 13.4213 11.4858 13.2054 11.4936C13.1006 11.4893 12.9959 11.5064 12.8978 11.5437C12.7997 11.5811 12.7102 11.6379 12.6348 11.7109C12.5608 11.7805 12.502 11.8648 12.4622 11.9583C12.4225 12.0519 12.4026 12.1527 12.4039 12.2544C12.4045 12.3537 12.4252 12.4519 12.4649 12.5429C12.5046 12.634 12.5624 12.7162 12.6348 12.7842C12.7102 12.8573 12.7997 12.9142 12.8978 12.9516C12.9959 12.989 13.1006 13.006 13.2054 13.0017C13.4213 13.0095 13.6314 12.9312 13.7896 12.7842C13.8687 12.721 13.932 12.6402 13.9745 12.5482C14.0169 12.4563 14.0374 12.3556 14.0342 12.2544C14.0374 12.1512 14.017 12.0485 13.9747 11.9544C13.9323 11.8602 13.869 11.7769 13.7896 11.7109Z" fill="#0047BB"></path><path d="M39.8885 3.34205C40.1043 3.34984 40.3145 3.27161 40.4727 3.12462C40.5496 3.05726 40.6103 2.97343 40.6503 2.87934C40.6903 2.78524 40.7085 2.68327 40.7037 2.58115C40.7076 2.47915 40.6889 2.37757 40.649 2.28362C40.609 2.18968 40.5489 2.10565 40.4727 2.03767C40.3096 1.90041 40.1016 1.82785 39.8885 1.83385C39.7836 1.82952 39.679 1.84657 39.5809 1.88394C39.4828 1.9213 39.3933 1.97826 39.3179 2.05127C39.2455 2.11935 39.1877 2.2015 39.148 2.29258C39.1083 2.38366 39.0875 2.48179 39.0869 2.58115C39.0906 2.78538 39.1734 2.98026 39.3179 3.12462C39.3933 3.19764 39.4828 3.25459 39.5809 3.29196C39.679 3.32933 39.7836 3.34638 39.8885 3.34205Z" fill="#0047BB"></path><path d="M37.8777 3.34205C37.9847 3.34666 38.0915 3.32979 38.1918 3.29246C38.2921 3.25512 38.384 3.19803 38.4619 3.12462C38.5413 3.05858 38.6046 2.97533 38.647 2.88116C38.6893 2.78699 38.7097 2.68436 38.7065 2.58115C38.7078 2.47822 38.6866 2.37633 38.6443 2.28246C38.6021 2.18859 38.5398 2.10497 38.4619 2.03767C38.2994 1.89927 38.0911 1.82656 37.8777 1.83385C37.7729 1.82952 37.6682 1.84657 37.5701 1.88394C37.472 1.9213 37.3825 1.97826 37.3071 2.05127C37.2347 2.11935 37.1769 2.2015 37.1372 2.29258C37.0975 2.38366 37.0768 2.48179 37.0762 2.58115C37.0798 2.78538 37.1626 2.98026 37.3071 3.12462C37.3825 3.19764 37.472 3.25459 37.5701 3.29196C37.6682 3.32933 37.7729 3.34638 37.8777 3.34205Z" fill="#0047BB"></path><path d="M76.2446 8.08356V4.00775H74.9811V7.59448C75.0249 8.05719 74.9549 8.52358 74.7774 8.95309C74.6712 9.13317 74.5134 9.27727 74.3246 9.36687C74.1357 9.45647 73.9243 9.48745 73.7177 9.45576H64.3705C63.4058 9.45576 63.0119 9.04817 62.4277 7.74391C62.1522 7.06349 61.6789 6.4814 61.0691 6.07285C60.4459 5.67049 59.6948 5.51535 58.9632 5.63801V6.86078H59.1127C60.2131 6.86078 60.7837 7.47206 60.7837 8.62687C60.7153 9.47257 60.3303 10.2614 59.7057 10.8356C59.0811 11.4098 58.2629 11.7273 57.4144 11.7245C55.295 11.7245 53.9636 10.1757 53.9636 7.64872V6.29011H52.6865V7.83894C52.6518 8.48512 52.746 9.13178 52.9637 9.74118C53.1813 10.3506 53.5181 10.9106 53.9543 11.3885C54.3906 11.8665 54.9175 12.2529 55.5046 12.5252C56.0916 12.7975 56.727 12.9502 57.3737 12.9745C58.4472 12.9817 59.4896 12.6137 60.3206 11.934C61.1517 11.2543 61.7191 10.3056 61.9249 9.25194C62.1527 9.67979 62.4907 10.0389 62.904 10.2921C63.3172 10.5453 63.7907 10.6834 64.2753 10.692H74.0165C75.4838 10.692 76.2175 9.80897 76.2175 8.06996" fill="#050509"></path><path d="M78.4184 4.03495H78.2689V5.24396H78.7852C79.2786 5.24317 79.7641 5.36743 80.1965 5.605C80.6289 5.84257 80.994 6.18572 81.2579 6.60256C81.7272 7.45873 81.9571 8.42559 81.9236 9.40136H76.7473V10.6648H83.2958V10.5289C83.3603 9.13999 83.1383 7.75262 82.6436 6.45313C82.2824 5.66547 81.6863 5.00886 80.9371 4.57345C80.1879 4.13803 79.3224 3.94527 78.4592 4.02135" fill="#050509"></path><path d="M129.067 4.04842V7.64875C129.067 9.17039 128.687 9.4286 127.817 9.4286H126.35C126.487 8.98917 126.551 8.53022 126.54 8.07V3.99419H125.277V7.59452C125.277 9.11615 124.951 9.3742 124.23 9.3742H122.573C122.717 8.93613 122.786 8.47674 122.777 8.0156V3.93979H121.5V7.66235C121.405 8.7764 120.97 9.31981 120.141 9.31981H117.505C117.643 8.88038 117.707 8.42142 117.696 7.9612V0.624878H116.419V7.51292C116.463 7.97446 116.398 8.44005 116.228 8.87153C116.121 9.05033 115.963 9.1934 115.774 9.28282C115.586 9.37225 115.375 9.40405 115.169 9.3742H112.696V8.87153C112.696 5.62446 111.514 3.98059 109.177 3.98059C108.26 4.06378 107.381 4.38448 106.626 4.91098C105.871 5.43748 105.266 6.15156 104.87 6.98305V0.706308H103.675V9.3742H94.1646C93.1185 9.3742 92.5207 8.61334 92.5207 7.2955V2.66278H89.4095C87.752 2.66278 86.5972 4.11645 86.5972 6.19512C86.5972 8.27378 87.7248 9.67306 89.2329 9.67306C89.6299 9.70207 90.0282 9.63598 90.3944 9.48001C90.7607 9.32405 91.0845 9.08284 91.3387 8.7765C91.5254 9.34144 91.8923 9.82937 92.3832 10.1656C92.874 10.5019 93.4617 10.6678 94.0559 10.6378H128.13C129.611 10.6378 130.358 9.76821 130.358 8.0292V3.95339L129.067 4.04842ZM91.1349 6.07289C91.1349 7.82549 90.5643 8.6677 89.4774 8.6677C88.3905 8.6677 87.7791 7.60806 87.7791 6.19512C87.7791 4.78217 88.5128 3.73597 89.5046 3.73597H91.1349V6.07289ZM111.392 9.4286H104.775C105.482 7.15973 107.493 5.21696 109.123 5.21696C110.481 5.21696 111.419 6.57549 111.419 8.7085C111.419 8.93946 111.419 9.17047 111.419 9.4286" fill="#050509"></path><path d="M58.5013 13.8032C58.3964 13.7989 58.2917 13.8159 58.1936 13.8533C58.0955 13.8907 58.0061 13.9476 57.9306 14.0206C57.8583 14.0887 57.8005 14.1707 57.7608 14.2618C57.7211 14.3529 57.7003 14.4512 57.6997 14.5505C57.7033 14.7547 57.7861 14.9495 57.9306 15.0938C58.0061 15.1668 58.0955 15.2238 58.1936 15.2612C58.2917 15.2985 58.3964 15.3156 58.5013 15.3112C58.6082 15.3159 58.7151 15.299 58.8154 15.2617C58.9157 15.2243 59.0075 15.1672 59.0855 15.0938C59.1649 15.0278 59.2281 14.9445 59.2705 14.8504C59.3129 14.7562 59.3332 14.6537 59.33 14.5505C59.3313 14.4476 59.3101 14.3455 59.2679 14.2517C59.2256 14.1578 59.1634 14.0743 59.0855 14.007C58.923 13.8686 58.7146 13.7959 58.5013 13.8032Z" fill="#050509"></path><path d="M56.5043 13.8032C56.3972 13.797 56.29 13.813 56.1894 13.8504C56.0888 13.8879 55.9972 13.9459 55.9202 14.0206C55.8496 14.0894 55.7939 14.1718 55.7565 14.2629C55.7191 14.354 55.7008 14.452 55.7028 14.5505C55.7014 14.7531 55.7794 14.9481 55.9202 15.0938C55.9972 15.1685 56.0888 15.2265 56.1894 15.2639C56.29 15.3014 56.3972 15.3174 56.5043 15.3112C56.7202 15.319 56.9303 15.2408 57.0885 15.0938C57.1633 15.0247 57.2225 14.9405 57.2623 14.8468C57.3021 14.7532 57.3216 14.6522 57.3195 14.5505C57.3208 14.4488 57.3009 14.348 57.2611 14.2544C57.2213 14.1609 57.1626 14.0766 57.0885 14.007C56.9254 13.8697 56.7175 13.7972 56.5043 13.8032Z" fill="#050509"></path><path d="M91.1213 1.99704C91.3371 2.00484 91.5473 1.92661 91.7055 1.77962C91.7802 1.7105 91.8394 1.62635 91.8793 1.53267C91.9191 1.439 91.9385 1.3379 91.9364 1.23614C91.9377 1.1345 91.9178 1.03366 91.8781 0.940109C91.8383 0.846559 91.7795 0.762308 91.7055 0.692668C91.5437 0.551607 91.336 0.474284 91.1213 0.475245C91.0135 0.473189 90.9063 0.49265 90.806 0.532296C90.7058 0.571941 90.6143 0.631043 90.5371 0.706267C90.3993 0.848237 90.3223 1.03831 90.3223 1.23614C90.3223 1.43397 90.3993 1.62405 90.5371 1.76602C90.6124 1.84389 90.7035 1.9048 90.8043 1.94463C90.905 1.98446 91.0131 2.00236 91.1213 1.99704Z" fill="#050509"></path><path d="M89.1107 1.99712C89.3265 2.00491 89.5366 1.92669 89.6949 1.77969C89.7718 1.71233 89.8325 1.62851 89.8725 1.53441C89.9125 1.44031 89.9307 1.33834 89.9259 1.23622C89.9298 1.13422 89.9111 1.03264 89.8712 0.938694C89.8313 0.844749 89.771 0.760723 89.6949 0.692746C89.5331 0.551685 89.3254 0.474362 89.1107 0.475323C89.0048 0.472767 88.8996 0.491985 88.8014 0.53171C88.7033 0.571435 88.6143 0.630884 88.5401 0.706345C88.4057 0.808427 88.3091 0.952312 88.2654 1.11532C88.2218 1.27833 88.2335 1.45129 88.2988 1.60688C88.3642 1.76247 88.4794 1.89179 88.6264 1.97473C88.7734 2.05767 88.9437 2.08943 89.1107 2.06495" fill="#050509"></path><path d="M75.5926 11.4936C75.4878 11.4893 75.3831 11.5064 75.285 11.5437C75.1869 11.5811 75.0975 11.6379 75.0221 11.7109C74.8784 11.8503 74.7954 12.0406 74.7911 12.2408C74.7898 12.3424 74.8097 12.4433 74.8495 12.5368C74.8892 12.6304 74.948 12.7146 75.0221 12.7842C75.0975 12.8573 75.1869 12.9142 75.285 12.9516C75.3831 12.989 75.4878 13.006 75.5926 13.0017C75.8085 13.0095 76.0186 12.9312 76.1769 12.7842C76.2571 12.7189 76.3209 12.6358 76.3633 12.5414C76.4058 12.4471 76.4257 12.3441 76.4214 12.2408C76.4246 12.1395 76.4042 12.039 76.3617 11.9471C76.3193 11.8551 76.256 11.7742 76.1769 11.7109C76.0186 11.5639 75.8085 11.4858 75.5926 11.4936Z" fill="#050509"></path></svg>